<svg xmlns="http://www.w3.org/2000/svg" width="900" height="320" viewBox="0 0 900 320" role="img" aria-labelledby="t d">
  <title id="t">Alen Paul</title>
  <desc id="d">Alen Paul, Cybersecurity Consultant at Protiviti in Abu Dhabi. A 3D stack shows three focus areas: Cloud Security, Offensive Security and Technology Audit.</desc>
  <defs>
    <pattern id="dots" width="18" height="18" patternUnits="userSpaceOnUse"><circle cx="1.5" cy="1.5" r="1.2" fill="#21262d"/></pattern>
    <radialGradient id="glow" cx="50%" cy="50%" r="50%"><stop offset="0" stop-color="#1f6feb" stop-opacity="0.18"/><stop offset="1" stop-color="#1f6feb" stop-opacity="0"/></radialGradient>
    <clipPath id="card"><rect width="900" height="320" rx="12"/></clipPath>
    <style>
      .sans { font-family: -apple-system, BlinkMacSystemFont, "Segoe UI", "Noto Sans", Helvetica, Arial, sans-serif; }
      .mono { font-family: ui-monospace, SFMono-Regular, Menlo, Consolas, "Liberation Mono", monospace; }
      .label { font-family: ui-monospace, SFMono-Regular, Menlo, Consolas, "Liberation Mono", monospace; font-size: 13px; fill: #c9d1d9; }
    </style>
  </defs>
  <g clip-path="url(#card)">
    <rect width="900" height="320" fill="#0d1117"/>
    <rect width="900" height="320" fill="url(#dots)"/>
    <ellipse cx="584" cy="165" rx="230" ry="150" fill="url(#glow)"/>
  </g>
  <rect x="0.5" y="0.5" width="899" height="319" rx="12" fill="none" stroke="#30363d"/>

  <text x="48" y="104" class="mono" font-size="14" fill="#8b949e"><tspan fill="#3fb950">~/alenpaul36</tspan> $ whoami<tspan fill="#3fb950">▍<animate attributeName="opacity" values="1;1;0;0" keyTimes="0;0.5;0.5;1" dur="1.1s" repeatCount="indefinite"/></tspan></text>
  <text x="46" y="156" class="sans" font-size="44" font-weight="700" fill="#f0f6fc">Alen Paul</text>
  <text x="48" y="190" class="sans" font-size="17" fill="#c9d1d9">Cybersecurity Consultant @ Protiviti</text>
  <text x="48" y="222" class="mono" font-size="13" fill="#8b949e">Abu Dhabi, UAE  ·  eJPT  ·  ISC2 CC</text>

  <g>
    <animateTransform attributeName="transform" type="translate" values="0 0;0 -7;0 0" dur="4.5s" begin="0.7s" repeatCount="indefinite" calcMode="spline" keySplines="0.45 0 0.55 1;0.45 0 0.55 1"/>
    <polygon points="480,218 584,270 584,286 480,234" fill="#5b3a99"/>
    <polygon points="584,270 688,218 688,234 584,286" fill="#40286e"/>
    <polygon points="584,166 688,218 584,270 480,218" fill="#a371f7" fill-opacity="0.92"/>
    <polygon points="584,180 660,218 584,256 508,218" fill="none" stroke="#ffffff" stroke-opacity="0.35" stroke-dasharray="3 5"/>
    <line x1="694" y1="226.0" x2="714" y2="226.0" stroke="#484f58"/>
    <circle cx="694" cy="226.0" r="2.5" fill="#a371f7"/>
    <text x="720" y="230.0" class="label">Technology Audit</text>
  </g>
  <g>
    <animateTransform attributeName="transform" type="translate" values="0 0;0 -7;0 0" dur="4.5s" begin="0.35s" repeatCount="indefinite" calcMode="spline" keySplines="0.45 0 0.55 1;0.45 0 0.55 1"/>
    <polygon points="480,152 584,204 584,220 480,168" fill="#1f6f2c"/>
    <polygon points="584,204 688,152 688,168 584,220" fill="#154d1f"/>
    <polygon points="584,100 688,152 584,204 480,152" fill="#3fb950" fill-opacity="0.92"/>
    <polygon points="584,114 660,152 584,190 508,152" fill="none" stroke="#ffffff" stroke-opacity="0.35" stroke-dasharray="3 5"/>
    <line x1="694" y1="160.0" x2="714" y2="160.0" stroke="#484f58"/>
    <circle cx="694" cy="160.0" r="2.5" fill="#3fb950"/>
    <text x="720" y="164.0" class="label">Offensive Security</text>
  </g>
  <g>
    <animateTransform attributeName="transform" type="translate" values="0 0;0 -7;0 0" dur="4.5s" begin="0s" repeatCount="indefinite" calcMode="spline" keySplines="0.45 0 0.55 1;0.45 0 0.55 1"/>
    <polygon points="480,86 584,138 584,154 480,102" fill="#1b6b72"/>
    <polygon points="584,138 688,86 688,102 584,154" fill="#124a4f"/>
    <polygon points="584,34 688,86 584,138 480,86" fill="#39c5cf" fill-opacity="0.92"/>
    <polygon points="584,48 660,86 584,124 508,86" fill="none" stroke="#ffffff" stroke-opacity="0.35" stroke-dasharray="3 5"/>
    <line x1="694" y1="94.0" x2="714" y2="94.0" stroke="#484f58"/>
    <circle cx="694" cy="94.0" r="2.5" fill="#39c5cf"/>
    <text x="720" y="98.0" class="label">Cloud Security</text>
  </g>
</svg>
